<?xml version="1.0" encoding="UTF-8"?>
<!-- Generator: Adobe Illustrator 25.3.1, SVG Export Plug-In . SVG Version: 6.00 Build 0)  -->
<svg version="1.1" id="Layer_1" xmlns="http://www.w3.org/2000/svg" xmlns:xlink="http://www.w3.org/1999/xlink" x="0px" y="0px" viewBox="0 0 461.8 299.2" style="enable-background:new 0 0 461.8 299.2;" xml:space="preserve" width="198" height="129">
<style type="text/css">
	.st0{fill:#36255C;}
	.st1{fill:#FFFFFF;}
</style>
<rect class="st0" width="461.8" height="299.2"/>
<g>
	<path class="st1" d="M114.7,97.6c-2.1,3.7-5.3,6.8-9.6,9.1c-4.3,2.3-9.6,3.4-16,3.4H77.4v28h-19v-78h30.8c6.2,0,11.5,1.1,15.8,3.2   s7.5,5.1,9.7,8.9c2.2,3.8,3.2,8.1,3.2,13C117.8,89.7,116.8,93.8,114.7,97.6z M95.8,92.4c1.8-1.7,2.7-4.1,2.7-7.2s-0.9-5.5-2.7-7.2   c-1.8-1.7-4.5-2.6-8.1-2.6H77.4v19.5h10.3C91.3,95,94,94.1,95.8,92.4z"/>
	<path class="st1" d="M127.5,90.2c2.4-4.8,5.7-8.5,9.8-11.1s8.8-3.9,13.9-3.9c4.4,0,8.2,0.9,11.5,2.7c3.3,1.8,5.8,4.1,7.6,7v-8.8h19   V138h-19v-8.8c-1.9,2.9-4.4,5.2-7.7,7s-7.1,2.7-11.5,2.7c-5,0-9.6-1.3-13.8-3.9c-4.1-2.6-7.4-6.4-9.8-11.2   c-2.4-4.8-3.6-10.4-3.6-16.8C123.9,100.6,125.1,95,127.5,90.2z M166.4,95.8c-2.6-2.7-5.8-4.1-9.6-4.1s-7,1.3-9.6,4.1   c-2.6,2.7-3.9,6.4-3.9,11.2s1.3,8.5,3.9,11.3c2.6,2.8,5.8,4.2,9.6,4.2s7-1.4,9.6-4.1s3.9-6.5,3.9-11.2   C170.3,102.3,169,98.6,166.4,95.8z"/>
	<path class="st1" d="M228.7,78.4c3.3-2,7-2.9,11.1-2.9v20.1h-5.2c-4.7,0-8.3,1-10.7,3.1c-2.4,2-3.6,5.6-3.6,10.7v28.8h-19V76.1h19   v10.3C222.6,83,225.3,80.3,228.7,78.4z"/>
	<path class="st1" d="M249,90.2c2.6-4.8,6.3-8.5,11-11.1c4.7-2.6,10.1-3.9,16.1-3.9c7.8,0,14.3,2,19.5,6.1s8.6,9.8,10.3,17.2h-20.2   c-1.7-4.7-5-7.1-9.9-7.1c-3.5,0-6.2,1.3-8.3,4.1c-2.1,2.7-3.1,6.6-3.1,11.6s1,8.9,3.1,11.6s4.9,4.1,8.3,4.1c4.9,0,8.2-2.4,9.9-7.1   h20.2c-1.6,7.2-5.1,12.9-10.3,17.1c-5.3,4.1-11.7,6.2-19.4,6.2c-6.1,0-11.5-1.3-16.1-3.9c-4.7-2.6-8.4-6.3-11-11.1   s-3.9-10.4-3.9-16.9C245.1,100.6,246.4,95,249,90.2z"/>
	<path class="st1" d="M374.1,111.6h-43c0.3,3.8,1.5,6.8,3.7,8.8s4.9,3.1,8,3.1c4.7,0,8-2,9.9-6H373c-1,4.1-2.9,7.7-5.6,11   s-6.1,5.8-10.2,7.7c-4.1,1.9-8.6,2.8-13.6,2.8c-6.1,0-11.5-1.3-16.2-3.9c-4.7-2.6-8.4-6.3-11.1-11.1s-4-10.4-4-16.9   c0-6.4,1.3-12.1,3.9-16.9s6.3-8.5,11-11.1s10.2-3.9,16.3-3.9c6,0,11.3,1.3,16,3.8s8.3,6.1,10.9,10.8c2.6,4.7,3.9,10.1,3.9,16.3   C374.4,107.8,374.3,109.7,374.1,111.6z M355,101.1c0-3.2-1.1-5.8-3.3-7.8c-2.2-1.9-5-2.9-8.3-2.9c-3.2,0-5.9,0.9-8,2.8   s-3.5,4.5-4,7.9H355z"/>
	<path class="st1" d="M403.4,55.9V138h-19V55.9H403.4z"/>
	<path class="st1" d="M113.6,187c4.3,4.7,6.4,11.2,6.4,19.4v36.2h-18.9V209c0-4.1-1.1-7.4-3.2-9.7c-2.2-2.3-5-3.4-8.7-3.4   s-6.5,1.1-8.7,3.4c-2.2,2.3-3.2,5.5-3.2,9.7v33.6h-19v-82.1h19V189c1.9-2.7,4.6-4.9,7.9-6.6c3.3-1.6,7.1-2.4,11.2-2.4   C103.6,179.9,109.3,182.3,113.6,187z"/>
	<path class="st1" d="M191.3,216.1h-43c0.3,3.9,1.5,6.8,3.7,8.8s4.9,3.1,8.1,3.1c4.7,0,8-2,9.9-6h20.2c-1,4.1-2.9,7.7-5.6,11   c-2.7,3.3-6.1,5.8-10.2,7.7s-8.6,2.8-13.6,2.8c-6.1,0-11.5-1.3-16.2-3.9c-4.7-2.6-8.4-6.3-11.1-11.1c-2.7-4.8-4-10.4-4-16.9   c0-6.4,1.3-12.1,3.9-16.9s6.3-8.5,11.1-11.1c4.7-2.6,10.2-3.9,16.3-3.9c6,0,11.3,1.3,16,3.8s8.3,6.1,10.9,10.8   c2.6,4.7,3.9,10.1,3.9,16.3C191.6,212.4,191.5,214.2,191.3,216.1z M172.2,205.6c0-3.2-1.1-5.8-3.3-7.8c-2.2-1.9-5-2.9-8.3-2.9   c-3.2,0-5.9,0.9-8.1,2.8c-2.2,1.9-3.5,4.5-4.1,7.9H172.2z"/>
	<path class="st1" d="M228.9,182.9c3.3-2,7-2.9,11.1-2.9v20.1h-5.2c-4.7,0-8.3,1-10.7,3.1c-2.4,2-3.6,5.6-3.6,10.7v28.8h-19v-62.1   h19v10.3C222.8,187.5,225.6,184.8,228.9,182.9z"/>
	<path class="st1" d="M260.9,239.6c-4.9-2.6-8.7-6.3-11.4-11.1c-2.8-4.8-4.2-10.4-4.2-16.9c0-6.4,1.4-12,4.2-16.8   c2.8-4.9,6.7-8.6,11.5-11.2c4.9-2.6,10.4-3.9,16.4-3.9s11.5,1.3,16.4,3.9s8.7,6.3,11.5,11.2s4.2,10.4,4.2,16.8   c0,6.4-1.4,12-4.3,16.8c-2.9,4.9-6.7,8.6-11.7,11.2s-10.4,3.9-16.5,3.9C271.2,243.4,265.8,242.1,260.9,239.6z M286.6,223   c2.5-2.7,3.8-6.5,3.8-11.4c0-5-1.2-8.8-3.7-11.4c-2.5-2.7-5.5-4-9.2-4s-6.8,1.3-9.2,3.9c-2.4,2.6-3.7,6.5-3.7,11.5   s1.2,8.8,3.6,11.4c2.4,2.7,5.4,4,9,4C280.9,227,284,225.7,286.6,223z"/>
	<rect x="318.1" y="221.8" class="st1" width="20.9" height="20.9"/>
</g>
</svg>